# xmcd
#
# Track frame offsets:
#	150
#	15755
#	33530
#	49330
#	67155
#	83500
#	104577
#	120602
#	135770
#	151865
#
# Disc length: 2253 seconds
#
# Revision: 5
# Processed by: cddbd v1.5.2PL0 Copyright (c) Steve Scherf et al.
# Submitted via: EasyCDDAExtractor 15.3.0.1
#
DISCID=7408cb0a
DTITLE=Ana Gabriel - Pecado Original
DYEAR=1987
DGENRE=Latin
TTITLE0=Pecado Original
TTITLE1=Ven, Ven
TTITLE2=Ven Cariño
TTITLE3=Por Culpa Del Amor
TTITLE4=Amor Con Desamor
TTITLE5=Amor
TTITLE6=Cruz Y Raya
TTITLE7=Ay Amor
TTITLE8=Noche A Noche
TTITLE9=Pensar En Ti
EXTD=
EXTT0=
EXTT1=
EXTT2=
EXTT3=
EXTT4=
EXTT5=
EXTT6=
EXTT7=
EXTT8=
EXTT9=
PLAYORDER=
